<svg width="120" height="40" viewBox="0 0 120 40" fill="none" xmlns="http://www.w3.org/2000/svg">
<path d="M40.9995 14.0281C41.279 14.5136 41.5953 15.1095 41.941 15.8157C42.2867 16.5219 42.6398 17.2612 43.0003 18.0225C43.3608 18.7839 43.7138 19.5857 44.0669 20.3876C44.42 21.1894 44.7436 21.9287 45.0379 22.5944L45.9978 20.3876C46.3435 19.5857 46.6966 18.7974 47.0571 18.0225C47.4174 17.2477 47.7693 16.5121 48.1126 15.8157C48.462 15.1095 48.7746 14.5136 49.0579 14.0281H51.2389C51.3565 15.0089 51.468 16.0437 51.5735 17.1324C51.6789 18.2212 51.7733 19.343 51.8567 20.4979C51.9401 21.6455 52.0185 22.7992 52.0921 23.959C52.1657 25.1188 52.2282 26.2505 52.2797 27.3539H49.8927C49.8412 25.8042 49.7787 24.2104 49.7051 22.5724C49.6315 20.9344 49.5249 19.3405 49.3851 17.7908C49.2418 18.0851 49.0762 18.4382 48.885 18.8464C48.6937 19.2547 48.4877 19.7034 48.2671 20.1853C48.0464 20.6671 47.8146 21.1673 47.605 21.7007L46.9504 23.1719C46.7407 23.6537 46.5421 24.1025 46.3656 24.5181L45.9021 25.5847H44.0963C43.9675 25.2905 43.8131 24.93 43.6328 24.5071C43.4527 24.0841 43.2651 23.6353 43.0481 23.1535L42.3934 21.6639C42.1691 21.1489 41.9484 20.6561 41.7277 20.1926L41.1135 18.8575C40.9223 18.4382 40.7457 18.0888 40.6133 17.8092C40.4711 19.3467 40.3632 20.9405 40.2896 22.5908C40.2161 24.241 40.1548 25.8349 40.1057 27.3723H37.7188C37.7702 26.2689 37.8328 25.1287 37.9063 23.9517C37.9799 22.7747 38.0571 21.6013 38.1417 20.4391C38.2263 19.2768 38.3183 18.155 38.4249 17.0662C38.5316 15.9775 38.6383 14.9697 38.756 14.0465L40.9995 14.0281Z" fill="#324066"/>
<path fill-rule="evenodd" clip-rule="evenodd" d="M63.0266 24.4883C63.2654 23.7889 63.3823 23.0536 63.3724 22.3146C63.3804 21.5778 63.2571 20.8454 63.0083 20.1519C62.7923 19.5374 62.456 18.9722 62.0189 18.4894C61.5934 18.0258 61.071 17.6616 60.4889 17.4227C59.8691 17.1705 59.205 17.0454 58.5359 17.0549C57.8705 17.0454 57.2099 17.1705 56.5939 17.4227C56.0145 17.6644 55.4939 18.0283 55.0676 18.4894C54.6245 18.9697 54.2842 19.5354 54.0673 20.1519C53.8172 20.8452 53.6926 21.5776 53.6995 22.3146C53.693 23.0552 53.8175 23.7911 54.0673 24.4883C54.2836 25.1075 54.6225 25.6767 55.0639 26.1619C55.4882 26.6247 56.006 26.992 56.5829 27.2396C57.2038 27.4968 57.8714 27.6221 58.5432 27.6074C59.2187 27.6217 59.8898 27.4965 60.5146 27.2396C61.0958 26.9939 61.6176 26.6264 62.0447 26.1619C62.4823 25.6766 62.8165 25.1071 63.0266 24.4883ZM60.3417 19.9422C60.806 20.6431 61.0317 21.4751 60.9854 22.3146C61.0324 23.1645 60.8069 24.0072 60.3417 24.7201C60.1299 24.9955 59.8575 25.2187 59.5456 25.3722C59.2338 25.5257 58.8908 25.6056 58.5432 25.6056C58.1957 25.6056 57.8528 25.5257 57.541 25.3722C57.2291 25.2187 56.9567 24.9955 56.7447 24.7201C56.2813 24.0065 56.056 23.1643 56.1012 22.3146C56.0567 21.4753 56.2822 20.6439 56.7447 19.9422C56.9584 19.6693 57.2314 19.4485 57.543 19.2967C57.8546 19.1449 58.1967 19.066 58.5432 19.066C58.8899 19.066 59.2319 19.1449 59.5436 19.2967C59.8552 19.4485 60.1282 19.6693 60.3417 19.9422Z" fill="#324066"/>
<path d="M71.0425 22.068C71.0425 21.0198 70.9101 20.2584 70.6452 19.7913C70.3804 19.3242 69.9097 19.0888 69.1741 19.0888C68.8911 19.0901 68.6085 19.1098 68.3281 19.1476C68.0229 19.1844 67.7912 19.2175 67.6367 19.2433V27.3535H65.3086V17.6212C65.8885 17.4656 66.4766 17.3428 67.0703 17.2534C67.8309 17.136 68.5994 17.0782 69.369 17.0805C69.9474 17.0611 70.524 17.1522 71.0682 17.349C71.4803 17.5101 71.8557 17.7528 72.1715 18.0626C72.343 17.9396 72.5238 17.8302 72.7122 17.7352C72.9489 17.6109 73.1948 17.5051 73.4479 17.4189C73.7276 17.3184 74.0139 17.2373 74.3048 17.1762C74.6048 17.1133 74.9104 17.0812 75.2169 17.0805C75.8781 17.0588 76.5368 17.174 77.1515 17.4189C77.6267 17.6192 78.0375 17.9462 78.3394 18.3642C78.642 18.8058 78.8453 19.3077 78.9353 19.8354C79.05 20.454 79.1054 21.0821 79.1008 21.7113V27.3535H76.7727V22.068C76.7727 21.0198 76.6439 20.2584 76.3865 19.7913C76.129 19.3242 75.6509 19.0888 74.9153 19.0888C74.554 19.0857 74.1952 19.148 73.8561 19.2727C73.5971 19.3655 73.3502 19.489 73.1205 19.6405C73.2251 19.9722 73.2965 20.3135 73.3338 20.6593C73.3717 21.0431 73.3902 21.4286 73.389 21.8142V27.3535H71.0645L71.0425 22.068Z" fill="#324066"/>
<path d="M84.222 25.6804C84.6828 25.7089 85.1442 25.6335 85.5719 25.4597C85.7089 25.3888 85.822 25.2791 85.8972 25.1444C85.9723 25.0097 86.0063 24.8559 85.9948 24.702C85.9949 24.5372 85.9535 24.375 85.8745 24.2304C85.7955 24.0858 85.6813 23.9634 85.5425 23.8745C85.0779 23.5801 84.5788 23.3441 84.0565 23.1719C83.6603 23.0309 83.2722 22.8676 82.8943 22.6827C82.5625 22.5226 82.2554 22.3157 81.9823 22.0685C81.7225 21.8368 81.5156 21.5521 81.3754 21.2336C81.2184 20.8525 81.1432 20.4428 81.1547 20.0308C81.1371 19.6122 81.2205 19.1955 81.3978 18.8159C81.5751 18.4363 81.8412 18.1049 82.1734 17.8497C82.9835 17.2738 83.9654 16.991 84.9577 17.0479C85.9454 17.0513 86.9264 17.2128 87.8632 17.526L87.4403 19.4129C87.1231 19.2773 86.7944 19.1702 86.4582 19.0929C86.0032 18.9911 85.5379 18.943 85.0717 18.9495C84.6736 18.9326 84.2778 19.0161 83.9205 19.1922C83.7827 19.2581 83.6672 19.3628 83.5881 19.4935C83.509 19.6242 83.4699 19.7752 83.4755 19.9278C83.4727 20.0796 83.5028 20.2302 83.5638 20.3692C83.6304 20.515 83.7329 20.6416 83.8617 20.737C84.0356 20.866 84.223 20.9758 84.4207 21.0644C84.6964 21.191 84.9788 21.3028 85.2666 21.3991C85.7451 21.574 86.213 21.7766 86.6679 22.006C87.0184 22.1796 87.3398 22.4067 87.6205 22.6791C87.8601 22.9226 88.0424 23.2167 88.1537 23.5397C88.2782 23.9117 88.3367 24.3026 88.3266 24.6947C88.3508 25.1192 88.2654 25.5428 88.0786 25.9248C87.8918 26.3067 87.61 26.6342 87.2601 26.8758C86.5502 27.3687 85.5314 27.6114 84.211 27.6114C83.4935 27.6298 82.7765 27.5557 82.0778 27.3907C81.6924 27.2898 81.3129 27.167 80.9414 27.0229L81.346 25.0809C81.7501 25.2419 82.164 25.377 82.5854 25.4855C83.1203 25.6209 83.6704 25.6864 84.222 25.6804Z" fill="#324066"/>
<path d="M99.2736 25.2574V27.3539H90.8438V14.0281H93.2675V25.2574H99.2736Z" fill="#324066"/>
<path fill-rule="evenodd" clip-rule="evenodd" d="M106.29 17.3344C105.664 17.1276 105.007 17.0306 104.348 17.0475C103.742 17.0463 103.138 17.098 102.542 17.202C102.104 17.2733 101.673 17.3766 101.251 17.5109L101.541 19.3978C101.9 19.2746 102.27 19.1835 102.645 19.1256C103.131 19.0463 103.623 19.0081 104.116 19.0116C104.454 19.0018 104.79 19.0542 105.109 19.1661C105.352 19.2557 105.569 19.4035 105.742 19.5964C105.903 19.7834 106.018 20.0049 106.08 20.2438C106.144 20.495 106.176 20.7532 106.176 21.0125V21.3803C105.878 21.3082 105.576 21.2541 105.271 21.2185C105.004 21.1869 104.735 21.1709 104.465 21.1706C103.932 21.1695 103.399 21.2238 102.876 21.3325C102.401 21.4338 101.948 21.6221 101.541 21.8879C101.161 22.1317 100.847 22.4651 100.625 22.8589C100.388 23.3119 100.273 23.819 100.291 24.3301C100.274 24.8525 100.376 25.3718 100.589 25.8492C100.776 26.2468 101.061 26.5908 101.416 26.8496C101.801 27.1141 102.235 27.2991 102.693 27.394C103.236 27.5133 103.791 27.5713 104.348 27.5669C105.168 27.5732 105.989 27.5179 106.801 27.4014C107.526 27.2947 108.058 27.2027 108.426 27.1255V21.0272C108.43 20.4788 108.362 19.9322 108.223 19.4015C108.101 18.9349 107.872 18.5039 107.551 18.1436C107.203 17.7753 106.77 17.4976 106.29 17.3344ZM106.176 25.6064C105.635 25.6943 105.087 25.7325 104.539 25.7205C104.051 25.7511 103.564 25.6481 103.13 25.4225C102.949 25.295 102.806 25.1213 102.714 24.9195C102.623 24.7177 102.588 24.4951 102.612 24.275C102.601 24.0221 102.67 23.7722 102.81 23.5614C102.939 23.3748 103.114 23.2252 103.318 23.1274C103.544 23.0209 103.784 22.949 104.031 22.9141C104.29 22.8775 104.55 22.8591 104.811 22.8589C105.081 22.8572 105.35 22.8756 105.617 22.9141C105.805 22.9415 105.992 22.9808 106.176 23.0318V25.6064Z" fill="#324066"/>
<path fill-rule="evenodd" clip-rule="evenodd" d="M119.631 24.5175C119.88 23.8176 120.005 23.0794 119.999 22.3364C119.998 21.6197 119.892 20.9071 119.683 20.2215C119.507 19.6169 119.217 19.0515 118.829 18.5553C118.456 18.0943 117.978 17.7288 117.435 17.4887C116.423 17.0709 115.301 16.9998 114.244 17.2864C113.901 17.3754 113.569 17.4987 113.251 17.6542V12.446L110.926 12.8138V27.0665C111.497 27.2266 112.079 27.3494 112.666 27.4343C113.395 27.5534 114.134 27.6112 114.873 27.6072C115.6 27.6175 116.324 27.4928 117.005 27.2393C117.613 27.0098 118.162 26.648 118.612 26.1801C119.064 25.7026 119.411 25.1364 119.631 24.5175ZM117.031 19.9493C117.455 20.6559 117.658 21.473 117.616 22.296C117.667 23.1618 117.407 24.0175 116.884 24.7088C116.637 25.0003 116.328 25.231 115.977 25.3829C115.627 25.5347 115.247 25.6036 114.865 25.5842C114.548 25.5877 114.231 25.5717 113.916 25.5364C113.699 25.5141 113.482 25.4784 113.269 25.4297V19.6257C113.524 19.4654 113.8 19.3416 114.089 19.2578C114.439 19.1413 114.806 19.0829 115.174 19.085C115.532 19.057 115.891 19.1219 116.217 19.2733C116.541 19.4248 116.822 19.6576 117.031 19.9493Z" fill="#324066"/>
<path opacity="0.7" d="M19.3474 14.9435C19.1378 14.7927 18.0711 11.0116 14.3785 9.1504C13.3193 8.61707 12.2711 8.04697 11.2266 7.4695C11.6076 7.42821 11.9907 7.40734 12.3741 7.40698C17.4643 7.40698 19.8549 9.61384 20.1602 13.8143C20.2044 14.4285 19.4945 15.0575 19.3474 14.9435Z" fill="url(#paint0_radial_12273_86800)"/>
<path d="M3.60805 18.6148C3.59638 14.918 3.95991 11.2296 4.69304 7.6062C3.20873 9.00727 2.02672 10.6972 1.21965 12.5721C0.412576 14.4469 -0.00247595 16.467 1.11113e-05 18.5082V18.5523C0.00254591 20.5735 0.414844 22.5732 1.21199 24.4306C2.00914 26.2879 3.17457 27.9644 4.63787 29.3586C3.94332 25.8197 3.59838 22.2212 3.60805 18.6148Z" fill="#FFD97C"/>
<path d="M4.63956 29.3581C6.1775 30.8297 8.01027 31.958 10.0166 32.6684C8.74296 28.0168 8.11185 23.2128 8.14094 18.39C8.14094 17.1297 8.18018 15.8877 8.25864 14.6641C7.83427 14.5099 7.3861 14.4315 6.93458 14.4324C6.7985 14.4324 6.6661 14.4324 6.53369 14.4324C6.90149 14.1345 7.30973 13.8549 7.72166 13.5938C7.93498 13.4577 8.15198 13.3253 8.36897 13.2002C8.631 10.2054 9.16027 7.24008 9.95048 4.3396C7.99312 5.04245 6.20331 6.14469 4.69473 7.57634C3.95962 11.2094 3.59609 14.9078 3.60975 18.6144C3.60009 22.2207 3.94502 25.8193 4.63956 29.3581Z" fill="#F8BC8E"/>
<path d="M10.0145 32.6686C11.5726 33.2168 13.2105 33.5039 14.862 33.5182C14.5457 32.5031 14.2601 31.4487 14.005 30.3551C11.8087 27.7387 10.6238 24.4212 10.6655 21.0053C10.6655 20.5639 10.6949 20.1299 10.7354 19.7033C10.7648 19.3919 10.8053 19.0829 10.8568 18.7764C10.8568 18.7028 10.8568 18.6256 10.8568 18.5447V18.4674C10.8534 18.0961 10.8102 17.7262 10.728 17.364C10.5661 16.752 10.2579 16.1885 9.82995 15.722C9.40197 15.2556 8.86702 14.9001 8.2712 14.6863C8.19273 15.9124 8.1535 17.1543 8.1535 18.4122C8.12163 23.227 8.74776 28.0234 10.0145 32.6686Z" fill="#F3A39F"/>
<path d="M9.05495 12.8731C9.10762 11.8341 9.55633 10.8548 10.3088 10.1365C11.0613 9.41809 12.0604 9.01537 13.1007 9.01106C13.2037 9.01106 13.303 9.01106 13.4022 9.01106C13.7096 7.14828 14.1297 5.30584 14.6601 3.4939C13.0494 3.5288 11.4547 3.82315 9.93766 4.36561C9.15031 7.27123 8.62471 10.2416 8.36719 13.2409C8.59522 13.1012 8.82692 12.9798 9.05495 12.8731Z" fill="#F3A39F"/>
<path d="M14.676 9.31289C15.9024 8.19287 17.3055 7.28317 18.8284 6.62051C19.0086 5.77823 19.2146 4.95801 19.4353 4.15986C18.0053 3.7204 16.5177 3.49725 15.0218 3.4978H14.6797C14.1493 5.30974 13.7293 7.15218 13.4219 9.01496C13.8536 9.04419 14.2773 9.14487 14.676 9.31289Z" fill="#F08AB1"/>
<path d="M15.0112 33.522C15.7498 33.522 16.4874 33.468 17.218 33.3602L17.4055 33.3308C16.1211 32.5225 14.9707 31.5185 13.9961 30.3552C14.2413 31.4463 14.527 32.5007 14.853 33.5183L15.0112 33.522Z" fill="#F08AB1"/>
<path d="M22.5943 5.54266C21.5985 4.95962 20.5382 4.49428 19.435 4.15601C19.2143 4.95416 19.0083 5.77438 18.8281 6.61667C20.0312 6.09551 21.2974 5.73442 22.5943 5.54266Z" fill="#CD8ABA"/>
<path d="M21.5929 39.9994C21.9129 39.9994 22.2292 39.9994 22.5455 39.9774C21.3228 37.7628 20.3508 35.4189 19.6473 32.989C19.0622 34.0256 18.7024 35.1741 18.5915 36.3593C18.4806 37.5445 18.621 38.7398 19.0037 39.867C19.8634 39.9613 20.728 40.0056 21.5929 39.9994Z" fill="#F08AB1"/>
<path d="M27.122 39.2926C25.4 35.8813 24.1846 32.2372 23.5139 28.4753C22.8698 29.2954 22.168 30.0685 21.4138 30.7888L21.0902 31.0867C20.9431 31.2339 20.7997 31.3847 20.6636 31.5392C20.2769 31.9799 19.9368 32.4594 19.6484 32.9699C20.3519 35.3998 21.324 37.7438 22.5467 39.9583C24.091 39.8992 25.6248 39.676 27.122 39.2926Z" fill="#CD8ABA"/>
<path d="M27.1197 39.2926C27.7866 39.1161 28.4377 38.9125 29.0727 38.682C26.503 36.0763 24.9772 32.6191 24.7843 28.9645C24.7843 28.696 24.7622 28.4238 24.7622 28.1516C24.7622 27.6551 24.788 27.1622 24.8358 26.6804H24.799C24.4023 27.3071 23.9726 27.9124 23.5117 28.4937C24.1841 32.2493 25.3995 35.8871 27.1197 39.2926Z" fill="#A386BD"/>
<path d="M17.655 16.5291L17.5484 16.6321C17.2541 16.9079 16.9488 17.1764 16.6362 17.4339C15.2357 18.8594 14.385 20.7347 14.2349 22.7275C14.0847 24.7203 14.6449 26.7019 15.8161 28.3211C15.8161 28.3211 15.8161 28.3211 15.8382 28.3211H15.8602H15.9007C15.9157 28.3187 15.9297 28.3123 15.9413 28.3026C15.953 28.2929 15.9618 28.2802 15.9669 28.2659C16.0368 27.6738 15.8492 24.22 17.655 20.358C17.6293 19.6481 17.6146 18.9309 17.6146 18.2063C17.6219 17.6325 17.6293 17.0808 17.655 16.5291Z" fill="#F08AB1"/>
<path d="M22.8395 23.7204C22.7917 23.8087 22.7659 23.8565 22.7659 23.8602C22.7402 23.9227 22.7255 23.9852 22.7954 24.033C22.8177 24.0498 22.8448 24.0588 22.8726 24.0588C22.8579 23.9484 22.8505 23.8344 22.8395 23.7204Z" fill="#CD8ABA"/>
<path d="M24.4441 -0.000244141C24.4441 0.232703 24.4441 0.464424 24.4441 0.694919C24.4441 1.36066 24.4147 2.02272 24.3559 2.67007C23.8857 7.95212 21.5027 12.8806 17.6547 16.5292C17.6547 17.0809 17.6289 17.6327 17.6289 18.1917C17.6289 18.9274 17.6289 19.6335 17.6694 20.3434C17.7724 20.1191 17.8864 19.8947 18.0041 19.6667C18.0041 19.6667 18.199 19.3687 18.3498 19.3503C18.7176 19.3099 19.1332 19.8285 18.9051 20.3692C17.9158 22.7158 18.394 23.7567 18.7433 23.7052C19.0155 23.6648 20.8029 22.4473 22.3404 16.8272C22.3567 16.7633 22.39 16.7051 22.4365 16.6585C22.4831 16.6119 22.5414 16.5787 22.6051 16.5623C22.7706 10.5928 23.8409 5.1013 25.5475 0.610322C25.187 0.393314 24.8192 0.18734 24.4441 -0.000244141Z" fill="#CD8ABA"/>
<path d="M21.6446 22.4547C21.6251 22.493 21.6199 22.5371 21.63 22.5789C21.6401 22.6207 21.6649 22.6575 21.6998 22.6827C21.766 22.7232 21.858 22.6827 21.9021 22.5908C21.9021 22.5908 22.2258 21.9397 22.6377 20.9393C22.6157 20.4906 22.6009 20.0381 22.5899 19.5857C22.3488 20.5649 22.0328 21.524 21.6446 22.4547Z" fill="#CD8ABA"/>
<path d="M22.9723 24.0176C22.9981 23.9698 24.2523 22.3147 25.2894 18.7616C25.374 18.4747 25.7308 18.4858 25.7676 18.4931C25.8259 18.5057 25.881 18.5304 25.9293 18.5654C25.9776 18.6005 26.0181 18.6452 26.0482 18.6967C26.0783 18.7483 26.0973 18.8055 26.1041 18.8648C26.1109 18.9241 26.1053 18.9842 26.0876 19.0412C25.846 20.5578 25.4224 22.0397 24.826 23.4549C24.5889 24.0315 24.2958 24.5834 23.9507 25.1027C23.9335 25.1311 23.9266 25.1645 23.9313 25.1974C23.936 25.2303 23.952 25.2605 23.9764 25.2829C23.9875 25.2954 24.0011 25.3055 24.0163 25.3123C24.0315 25.3192 24.048 25.3228 24.0647 25.3228C24.0814 25.3228 24.0979 25.3192 24.1131 25.3123C24.1284 25.3055 24.1419 25.2954 24.153 25.2829C24.2045 25.2314 25.0136 24.356 26.0618 21.8696C26.1078 21.7455 26.1898 21.638 26.2972 21.5607C26.3795 21.4995 26.4821 21.4719 26.584 21.4834C26.6429 21.495 26.6987 21.519 26.7476 21.5538C26.7965 21.5885 26.8375 21.6334 26.8678 21.6852C26.898 21.737 26.9169 21.7947 26.9232 21.8544C26.9294 21.9141 26.9229 21.9745 26.904 22.0315C26.851 22.3653 26.7735 22.6947 26.6723 23.0172C26.1754 24.2745 25.5596 25.4814 24.8333 26.6217C24.8333 26.6475 24.8333 26.6732 24.8333 26.699C25.9323 26.1121 26.953 25.3892 27.8714 24.5473C27.6314 22.4371 27.5086 20.3153 27.5036 18.1915C27.4751 13.3838 28.1038 8.5947 29.3719 3.95719C28.2882 2.63041 26.9859 1.49845 25.5212 0.610107C23.833 5.10108 22.7627 10.5925 22.5972 16.5511C22.6747 16.534 22.755 16.534 22.8326 16.5511C23.1709 16.6099 23.1525 16.9777 23.1121 17.1984C22.9466 18.1106 22.7663 18.9051 22.5898 19.5818C22.5898 20.0342 22.6155 20.4867 22.6376 20.9354C23.2357 19.5059 23.7155 18.0297 24.0721 16.5217C24.1001 16.4246 24.1618 16.3406 24.246 16.2847C24.3301 16.2288 24.4314 16.2046 24.5317 16.2164C24.6618 16.2494 24.7735 16.3325 24.8424 16.4476C24.9113 16.5627 24.9319 16.7004 24.8995 16.8306C24.5599 19.2168 23.8658 21.5388 22.8399 23.7197C22.8399 23.8337 22.8399 23.9478 22.873 24.0581C22.8917 24.0626 22.9114 24.0611 22.9292 24.0538C22.947 24.0466 22.9621 24.0339 22.9723 24.0176Z" fill="#A386BD"/>
<path d="M27.5242 18.1917C27.5292 20.3155 27.652 22.4373 27.892 24.5475C29.0306 23.5078 30.0031 22.2996 30.7754 20.965C31.8419 19.1206 32.4992 17.0684 32.7027 14.9476C32.7505 14.4621 32.7762 13.9693 32.7762 13.4764C32.7815 10.0156 31.5856 6.66027 29.3926 3.98315C28.1267 8.61235 27.4981 13.3926 27.5242 18.1917Z" fill="#7D7FBC"/>
<path d="M12.6309 12.2521C12.9946 12.2521 13.2893 11.9573 13.2893 11.5937C13.2893 11.2301 12.9946 10.9353 12.6309 10.9353C12.2673 10.9353 11.9727 11.2301 11.9727 11.5937C11.9727 11.9573 12.2673 12.2521 12.6309 12.2521Z" fill="#F08AB1"/>
<defs>
<radialGradient id="paint0_radial_12273_86800" cx="0" cy="0" r="1" gradientUnits="userSpaceOnUse" gradientTransform="translate(15.5246 10.7244) rotate(-48.3215) scale(2.10383 2.17497)">
<stop stop-color="#8A64A8"/>
<stop offset="0.17" stop-color="#8D67AA" stop-opacity="0.98"/>
<stop offset="0.32" stop-color="#9472B0" stop-opacity="0.91"/>
<stop offset="0.47" stop-color="#A183B9" stop-opacity="0.8"/>
<stop offset="0.62" stop-color="#B49BC7" stop-opacity="0.64"/>
<stop offset="0.76" stop-color="#CBBAD8" stop-opacity="0.44"/>
<stop offset="0.9" stop-color="#E8E0EE" stop-opacity="0.2"/>
<stop offset="1" stop-color="white" stop-opacity="0.01"/>
</radialGradient>
</defs>
</svg>
