<svg width="24" height="20" viewBox="0 0 24 20" fill="none" xmlns="http://www.w3.org/2000/svg">
<path d="M4.17813 4.10136C42.6637 31.7691 1.97848 1.20849 18.3409 15.885C19.57 16.9875 21.4009 19.8253 22.7108 18.7681C24.0485 17.6886 20.3909 16.4049 18.97 15.3773C13.3943 11.3452 8.68003 6.47596 1.75413 3.61291C-0.367366 2.73591 2.64613 6.98241 2.78796 8.68796C3.03647 11.6764 2.23544 14.7122 2.92287 17.6676C3.44269 19.9024 2.98615 13.1352 3.29827 10.8819C3.75053 7.61713 3.87551 4.27885 5.21343 1.13213C5.50009 0.457894 5.84773 2.56196 6.65346 2.99068C8.47568 3.96029 10.8481 4.3176 12.7934 5.16542C13.2327 5.35691 13.3829 5.75656 13.6776 6.05213" stroke="#212121"/>
</svg>
