<svg width="32" height="30" viewBox="0 0 32 30" fill="none" xmlns="http://www.w3.org/2000/svg">
<path d="M5.60725 6.27111C58.0876 49.3099 2.60772 1.7711 24.9201 24.6013C26.5961 26.3162 29.0929 30.7305 30.8791 29.0861C32.7032 27.4068 27.7155 25.4099 25.7779 23.8115C18.1747 17.5393 11.7462 9.96494 2.30179 5.5113C-0.591153 4.14709 3.51816 10.7527 3.71156 13.4058C4.05044 18.0545 2.95813 22.7768 3.89553 27.3742C4.60438 30.8506 3.98182 20.3237 4.40745 16.8187C5.02416 11.7401 5.19459 6.54722 7.01902 1.65231C7.40993 0.603501 7.88398 3.87649 8.98269 4.5434C11.4675 6.05167 14.7027 6.60748 17.3553 7.92632C17.9544 8.22419 18.1592 8.84587 18.5611 9.30565" stroke="#212121"/>
</svg>
