<svg width="144" height="6" viewBox="0 0 144 6" fill="none" xmlns="http://www.w3.org/2000/svg">
<path d="M0.382812 2.16789C43.699 2.16789 87.0176 2.27296 130.332 2.16789C134.702 2.15729 143.883 0.797483 143.361 1.82106C142.802 2.91914 134.543 2.58804 129.985 2.84798C108.799 4.05628 85.3567 4.93802 63.5572 5.06638C42.636 5.18958 21.6988 5.14897 0.773924 5.06638C0.422743 5.065 0.534733 4.8396 0.874931 4.819C10.1635 4.25658 19.5655 3.80115 28.9703 3.35909C37.4882 2.95872 46.0333 2.58273 54.631 2.29227C59.1143 2.14081 63.6488 2.07758 68.1742 2.03464C72.7057 1.99164 77.2909 2.18721 81.7797 2.03464C85.0908 1.9221 88.0288 1.4644 91.2486 1.25039C92.5166 1.16611 93.8662 1.17965 95.175 1.14429" stroke="#212121"/>
</svg>
