<svg width="298" height="14" viewBox="0 0 298 14" fill="none" xmlns="http://www.w3.org/2000/svg">
<path d="M39.7469 2.64496C99.1643 2.64496 158.607 3.11502 217.999 2.64496C264.296 2.27854 257.656 -0.201633 294.201 1.04316C295.547 1.08902 298.111 1.59008 297.07 1.82616C290.961 3.21179 279.168 3.96184 271.328 4.32419C232.371 6.12466 193.443 7.98286 154.356 9.56318C94.5652 11.9806 64.8926 13.3106 6.89943 12.4174C-1.19676 12.2927 -1.67332 11.8201 13.4054 10.773C19.5909 10.3435 25.8185 9.89565 32.1774 9.73934C92.5206 8.25603 152.908 6.86563 213.385 5.85727C222.538 5.70465 231.909 5.71547 240.857 6.2599C246.532 6.60514 250.8 7.94621 256.289 8.46757C261.263 8.94002 277.133 9.22971 271.863 9.20508C227.105 8.99588 196.292 7.30995 150.363 5.84856C140.014 5.51927 140.502 4.87214 140.502 6.13117" stroke="#212121"/>
</svg>
