<svg width="131" height="9" viewBox="0 0 131 9" fill="none" xmlns="http://www.w3.org/2000/svg">
<path d="M17.7501 2.13658C43.6449 2.13658 69.5506 2.41079 95.4343 2.13658C115.611 1.92284 112.717 0.47607 128.644 1.2022C129.231 1.22895 130.348 1.52123 129.894 1.65895C127.232 2.46723 122.093 2.90476 118.676 3.11613C101.698 4.16641 84.7325 5.25036 67.6981 6.17221C41.6405 7.58238 28.7089 8.3582 3.43485 7.83716C-0.0935628 7.76442 -0.301255 7.48872 6.27022 6.87794C8.96592 6.62739 11.68 6.36615 14.4513 6.27497C40.7495 5.4097 67.067 4.59864 93.4233 4.01043C97.4126 3.9214 101.496 3.92771 105.396 4.2453C107.869 4.44669 109.729 5.22898 112.122 5.53311C114.289 5.8087 121.205 5.97768 118.909 5.96332C99.4027 5.84129 85.9743 4.85783 65.9577 4.00535C61.4474 3.81326 61.6603 3.43577 61.6603 4.17021" stroke="#212121"/>
</svg>
