<svg width="335" height="9" viewBox="0 0 335 9" fill="none" xmlns="http://www.w3.org/2000/svg">
<path d="M0.695312 2.63212C101.664 2.63212 202.638 2.81599 303.601 2.63212C313.789 2.61357 335.189 0.233913 333.973 2.02516C332.669 3.94681 313.417 3.36738 302.793 3.82228C253.41 5.93681 198.766 7.47985 147.953 7.70449C99.1859 7.92008 50.382 7.84901 1.60698 7.70449C0.78839 7.70206 1.04943 7.30762 1.84242 7.27157C23.4936 6.28734 45.4096 5.49033 67.3318 4.71672C87.1867 4.01607 107.105 3.3581 127.146 2.84979C137.596 2.58473 148.166 2.47409 158.715 2.39894C169.277 2.32368 179.965 2.66593 190.429 2.39894C198.146 2.202 204.995 1.40102 212.5 1.0265C215.456 0.879007 218.602 0.902712 221.652 0.84082" stroke="#212121"/>
</svg>
