<svg width="52" height="52" viewBox="0 0 52 52" fill="none" xmlns="http://www.w3.org/2000/svg">
<rect width="52" height="52" rx="26" fill="#4B729F"/>
<path d="M34.947 27.9491C34.5057 27.4031 34.632 27.1603 34.947 26.6723C34.9527 26.6666 38.5962 21.7349 38.9717 20.0623L38.974 20.0612C39.1604 19.4516 38.974 19.0037 38.0719 19.0037H35.087C34.327 19.0037 33.9767 19.3881 33.7891 19.8182C33.7891 19.8182 32.2693 23.3817 30.1193 25.6916C29.4254 26.3591 29.1047 26.573 28.7258 26.573C28.5392 26.573 28.2492 26.3591 28.2492 25.7495V20.0612C28.2492 19.3301 28.0365 19.0037 27.4074 19.0037H22.714C22.2374 19.0037 21.954 19.3447 21.954 19.6622C21.954 20.3553 23.029 20.5147 23.1405 22.4647V26.6957C23.1405 27.6227 22.9688 27.7931 22.5877 27.7931C21.573 27.7931 19.1102 24.2153 17.6508 20.1203C17.3561 19.3257 17.0684 19.0049 16.3028 19.0049H13.3168C12.4647 19.0049 12.293 19.3892 12.293 19.8194C12.293 20.5793 13.3076 24.3578 17.0114 29.3498C19.4799 32.7574 22.9562 34.6037 26.1186 34.6037C28.0194 34.6037 28.2515 34.1936 28.2515 33.4883C28.2515 30.2324 28.0796 29.9249 29.0319 29.9249C29.4732 29.9249 30.2331 30.1388 32.0076 31.7824C34.0358 33.7313 34.3691 34.6037 35.5045 34.6037H38.4894C39.3402 34.6037 39.7713 34.1936 39.5234 33.3847C38.9558 31.6832 35.1199 28.1831 34.947 27.9491Z" fill="white"/>
</svg>
