<svg width="52" height="52" viewBox="0 0 52 52" fill="none" xmlns="http://www.w3.org/2000/svg">
<path d="M26 52C40.3594 52 52 40.3594 52 26C52 11.6406 40.3594 0 26 0C11.6406 0 0 11.6406 0 26C0 40.3594 11.6406 52 26 52Z" fill="#2CB742"/>
<path fill-rule="evenodd" clip-rule="evenodd" d="M25.9971 12.4795H26.0039C33.4584 12.4795 39.5205 18.5449 39.5205 25.9995C39.5205 33.4541 33.4584 39.5195 26.0039 39.5195C23.2543 39.5195 20.704 38.7015 18.5661 37.2854L13.3695 38.9465L15.0544 33.9239C13.4336 31.6982 12.4805 28.9571 12.4805 25.9995C12.4805 18.5432 18.5425 12.4795 25.9971 12.4795ZM31.2175 33.4794C32.2502 33.2564 33.5446 32.4925 33.8708 31.5714C34.197 30.6487 34.1971 29.8629 34.1023 29.6956C34.0259 29.5628 33.8453 29.4759 33.5757 29.346C33.5055 29.3122 33.4291 29.2754 33.3469 29.2342C32.9497 29.0364 31.018 28.0816 30.653 27.9548C30.2947 27.8196 29.9534 27.8669 29.683 28.2489C29.6315 28.321 29.5801 28.3933 29.529 28.4652C29.2028 28.9238 28.8883 29.3661 28.6267 29.6482C28.3884 29.9017 27.9998 29.9338 27.6736 29.7986C27.6379 29.7838 27.5972 29.7673 27.5515 29.7489C27.0351 29.5403 25.8896 29.0775 24.5031 27.8433C23.3337 26.8023 22.5393 25.506 22.3095 25.1174C22.0838 24.7273 22.2786 24.4987 22.4586 24.2873C22.4619 24.2834 22.4652 24.2796 22.4685 24.2757C22.5845 24.1321 22.6971 24.0125 22.8103 23.8924C22.8916 23.806 22.9731 23.7195 23.0565 23.6234C23.0691 23.6089 23.0813 23.5948 23.0932 23.5811C23.27 23.3777 23.3755 23.2565 23.4942 23.0032C23.6294 22.7412 23.5331 22.4708 23.4368 22.2714C23.3704 22.1314 22.9595 21.1345 22.6076 20.2806C22.4579 19.9176 22.319 19.5804 22.2216 19.346C21.9596 18.719 21.7603 18.6953 21.3631 18.6784C21.3512 18.6778 21.3392 18.6772 21.3271 18.6766C21.2013 18.6703 21.0628 18.6632 20.9102 18.6632C20.393 18.6632 19.854 18.8153 19.5278 19.1483C19.5162 19.16 19.5044 19.1722 19.492 19.1847C19.0747 19.6092 18.1453 20.5545 18.1453 22.4386C18.1453 24.3277 19.4864 26.1559 19.7333 26.4926C19.74 26.5017 19.7459 26.5097 19.7509 26.5166C19.7658 26.5361 19.7938 26.5768 19.8347 26.636C20.3404 27.3685 22.8057 30.9391 26.4821 32.4621C29.5884 33.7499 30.511 33.6299 31.2175 33.4794Z" fill="white"/>
</svg>
